<svg xmlns="http://www.w3.org/2000/svg" viewBox="0 0 128 128"><defs><linearGradient id="a" x1="61" y1="10" x2="19" y2="134" gradientUnits="userSpaceOnUse"><stop stop-color="#114A8B"/><stop offset="1" stop-color="#0669BC"/></linearGradient><linearGradient id="b" x1="69" y1="6" x2="115" y2="130" gradientUnits="userSpaceOnUse"><stop stop-color="#3CCBF4"/><stop offset="1" stop-color="#2892DF"/></linearGradient></defs><rect width="128" height="128" rx="18" fill="#fff"/><path d="M46 0h41L45 125a6 6 0 0 1-6 4H7a6 6 0 0 1-6-8L40 4a6 6 0 0 1 6-4Z" fill="url(#a)" transform="translate(.6 4.5) scale(.919)"/><path d="M97 82H38a3 3 0 0 0-2 5l38 35a6 6 0 0 0 4 2h34z" fill="#0078d4"/><path d="M98 4a6 6 0 0 0-6-4H47a6 6 0 0 1 6 4l39 117a6 6 0 0 1-6 9h45a6 6 0 0 0 6-9z" fill="url(#b)" transform="translate(.6 4.5) scale(.919)"/></svg>
